<?xml version="1.0" encoding="utf-8"?>
<!-- Generator: Adobe Illustrator 17.0.0, SVG Export Plug-In . SVG Version: 6.00 Build 0)  -->
<!DOCTYPE svg PUBLIC "-//W3C//DTD SVG 1.1//EN" "http://www.w3.org/Graphics/SVG/1.1/DTD/svg11.dtd">
<svg version="1.1" id="Layer_1" xmlns="http://www.w3.org/2000/svg" xmlns:xlink="http://www.w3.org/1999/xlink" x="0px" y="0px"
	 width="500px" height="100px" viewBox="-226 -26 500 100" enable-background="new -226 -26 500 100" xml:space="preserve">
<g>
	<path fill="#FF6155" d="M-74.154,49.583c-5.004,0-8.957-1.648-11.856-4.947c-2.9-3.297-4.35-7.762-4.35-13.392
		c0-4.491,0.653-8.941,1.962-13.349c1.307-4.406,3.198-8.345,5.672-11.814c2.474-3.468,5.472-6.27,8.999-8.402
		c3.525-2.132,7.506-3.199,11.941-3.199c3.412,0,6.155,0.456,8.231,1.365c2.075,0.91,3.596,1.763,4.563,2.559l-3.327,5.629
		c-0.967-0.853-2.375-1.621-4.222-2.303c-1.849-0.683-3.768-1.024-5.758-1.024c-3.298,0-6.241,0.853-8.828,2.559
		c-2.588,1.706-4.777,3.953-6.568,6.739c-1.791,2.787-3.17,5.928-4.137,9.425c-0.968,3.498-1.45,7.066-1.45,10.705
		c0,4.094,0.909,7.322,2.729,9.682c1.819,2.36,4.463,3.54,7.933,3.54c2.729,0,5.146-0.354,7.25-1.066
		c2.104-0.71,3.668-1.378,4.691-2.004l0.768,5.971c-0.341,0.285-0.953,0.612-1.834,0.981c-0.882,0.371-1.934,0.725-3.156,1.066
		c-1.224,0.341-2.631,0.64-4.222,0.896C-70.714,49.455-72.392,49.583-74.154,49.583z"/>
	<path fill="#FF6155" d="M-35.087,49.413c-4.209,0-7.493-1.222-9.852-3.668c-2.36-2.444-3.54-5.829-3.54-10.151
		c0-2.956,0.412-6.056,1.237-9.297c0.824-3.241,2.161-6.227,4.009-8.957c1.847-2.729,4.222-4.975,7.123-6.738
		c2.9-1.762,6.397-2.645,10.492-2.645c4.208,0,7.492,1.224,9.852,3.668c2.359,2.446,3.54,5.83,3.54,10.15
		c0,2.958-0.414,6.057-1.237,9.298c-0.825,3.241-2.162,6.227-4.009,8.956c-1.849,2.73-4.222,4.977-7.123,6.739
		C-27.495,48.53-30.993,49.413-35.087,49.413z M-33.893,43.1c2.273,0,4.321-0.64,6.142-1.919c1.819-1.28,3.354-2.914,4.606-4.905
		c1.25-1.99,2.203-4.222,2.857-6.696c0.653-2.474,0.981-4.875,0.981-7.208c0-2.559-0.569-4.563-1.706-6.014
		c-1.138-1.45-3.071-2.175-5.8-2.175c-2.275,0-4.322,0.64-6.142,1.919c-1.82,1.28-3.356,2.93-4.606,4.947
		c-1.251,2.02-2.205,4.265-2.857,6.739c-0.654,2.474-0.981,4.877-0.981,7.208c0,2.559,0.568,4.55,1.706,5.971
		C-38.556,42.39-36.622,43.1-33.893,43.1z"/>
	<path fill="#FF6155" d="M-0.285,48.474H-7.28l9.127-38.128C4.178,9.663,6.68,9.109,9.354,8.682c2.672-0.426,5.088-0.64,7.25-0.64
		c2.274,0,4.236,0.313,5.886,0.938c1.649,0.626,2.985,1.493,4.009,2.602c1.023,1.109,1.776,2.431,2.26,3.966
		c0.482,1.535,0.725,3.213,0.725,5.033c0,1.194-0.115,2.431-0.341,3.71c-0.228,1.279-0.512,2.574-0.853,3.881l-4.862,20.301h-6.995
		l4.521-18.766c0.341-1.421,0.682-2.857,1.023-4.308s0.512-2.857,0.512-4.222c0-1.99-0.569-3.653-1.706-4.99
		c-1.138-1.335-3.213-2.004-6.227-2.004c-1.309,0-2.574,0.072-3.796,0.213c-1.224,0.143-2.232,0.355-3.028,0.64L-0.285,48.474z"/>
	<path fill="#FF6155" d="M67.443,47.365c-1.65,0.569-3.37,1.053-5.161,1.45c-1.791,0.397-3.683,0.597-5.672,0.597
		c-1.65,0-3.171-0.171-4.563-0.512c-1.395-0.341-2.616-0.896-3.668-1.663c-1.053-0.768-1.877-1.805-2.474-3.113
		c-0.598-1.308-0.896-2.956-0.896-4.947c0-1.25,0.099-2.559,0.298-3.924s0.47-2.758,0.811-4.18l4.009-16.292h-8.358l1.364-5.886
		h8.444l2.645-11.089l7.336-1.194L58.572,8.895h15.183l-1.364,5.886H57.121l-4.009,16.974c-0.286,1.081-0.542,2.133-0.769,3.156
		c-0.228,1.023-0.341,2.019-0.341,2.985c0,2.162,0.497,3.597,1.493,4.308c0.994,0.712,2.401,1.066,4.222,1.066
		c1.762,0,3.482-0.184,5.161-0.555c1.677-0.369,3.254-0.838,4.733-1.407L67.443,47.365z"/>
	<path fill="#FF6155" d="M104.718,48.9c-0.285-0.567-0.541-1.179-0.768-1.833c-0.229-0.653-0.398-1.378-0.512-2.175
		c-1.139,1.023-2.717,2.034-4.734,3.028c-2.02,0.994-4.393,1.493-7.122,1.493c-4.436,0-7.692-1.335-9.768-4.009
		c-2.076-2.672-3.113-6.056-3.113-10.15c0-3.412,0.568-6.739,1.706-9.98c1.137-3.242,2.857-6.142,5.161-8.701
		c2.303-2.559,5.188-4.62,8.657-6.184c3.468-1.563,7.507-2.346,12.112-2.346c0.683,0,1.464,0.029,2.346,0.085
		c0.882,0.057,1.777,0.17,2.688,0.341c0.909,0.171,1.805,0.384,2.687,0.64c0.881,0.256,1.664,0.554,2.346,0.896l-5.8,23.884
		c-0.285,1.194-0.526,2.317-0.726,3.369c-0.199,1.053-0.298,2.175-0.298,3.369c0,1.194,0.113,2.375,0.341,3.54
		c0.227,1.166,0.567,2.46,1.023,3.881L104.718,48.9z M93.031,43.612c2.161,0,4.08-0.455,5.758-1.365
		c1.677-0.909,3.084-1.99,4.223-3.241c0.056-0.853,0.156-1.819,0.299-2.9c0.141-1.08,0.326-2.104,0.554-3.071l4.691-18.681
		c-0.285-0.113-0.824-0.213-1.62-0.298c-0.797-0.085-1.422-0.128-1.877-0.128c-2.9,0-5.531,0.569-7.89,1.706
		c-2.36,1.138-4.394,2.659-6.1,4.563c-1.705,1.906-3.015,4.094-3.923,6.568c-0.911,2.474-1.365,5.047-1.365,7.719
		c0,1.309,0.113,2.517,0.341,3.625c0.227,1.109,0.61,2.062,1.152,2.857c0.539,0.797,1.279,1.437,2.218,1.919
		C90.43,43.371,91.61,43.612,93.031,43.612z"/>
	<path fill="#FF6155" d="M121.351,34.314c0-3.468,0.583-6.794,1.749-9.98c1.165-3.184,2.871-5.999,5.118-8.444
		c2.245-2.444,5.003-4.393,8.273-5.843c3.27-1.45,7.037-2.175,11.303-2.175c2.331,0,4.378,0.157,6.142,0.469
		c1.762,0.313,3.411,0.783,4.947,1.408l-2.645,5.971c-0.968-0.455-2.119-0.881-3.455-1.279c-1.337-0.397-3.198-0.597-5.587-0.597
		c-2.9,0-5.517,0.555-7.848,1.664c-2.332,1.109-4.308,2.588-5.928,4.435c-1.621,1.849-2.857,3.953-3.711,6.312
		c-0.853,2.36-1.279,4.819-1.279,7.378c0,1.309,0.171,2.545,0.512,3.71c0.342,1.166,0.967,2.204,1.877,3.113
		c0.909,0.91,2.146,1.621,3.71,2.132c1.563,0.512,3.54,0.768,5.929,0.768c1.25,0,2.474-0.085,3.668-0.256
		c1.194-0.17,2.303-0.397,3.326-0.682c1.023-0.284,1.919-0.568,2.688-0.853c0.768-0.284,1.35-0.568,1.748-0.853l0.598,5.971
		c-1.024,0.626-2.688,1.252-4.99,1.877s-5.075,0.938-8.316,0.938c-5.915,0-10.364-1.42-13.35-4.265
		C122.844,42.39,121.351,38.75,121.351,34.314z"/>
	<path fill="#FF6155" d="M195.391,47.365c-1.65,0.569-3.37,1.053-5.161,1.45c-1.791,0.397-3.683,0.597-5.672,0.597
		c-1.65,0-3.171-0.171-4.563-0.512c-1.395-0.341-2.616-0.896-3.668-1.663c-1.053-0.768-1.877-1.805-2.474-3.113
		c-0.598-1.308-0.896-2.956-0.896-4.947c0-1.25,0.099-2.559,0.298-3.924s0.47-2.758,0.811-4.18l4.009-16.292h-8.358l1.364-5.886
		h8.444l2.645-11.089l7.336-1.194L186.52,8.895h15.183l-1.364,5.886H185.07l-4.009,16.974c-0.286,1.081-0.542,2.133-0.769,3.156
		c-0.228,1.023-0.341,2.019-0.341,2.985c0,2.162,0.497,3.597,1.493,4.308c0.994,0.712,2.401,1.066,4.222,1.066
		c1.762,0,3.482-0.184,5.161-0.555c1.677-0.369,3.254-0.838,4.733-1.407L195.391,47.365z"/>
</g>
<text transform="matrix(1 0 0 1 -115.0354 -158.8458)" font-family="'UbuntuMono-Italic'" font-size="85.2989">Contact</text>
<path fill="#FF6155" d="M-151.233-13.796c-20.329,0-36.809,16.48-36.809,36.809c0,20.329,16.48,36.809,36.809,36.809
	s36.809-16.48,36.809-36.809C-114.425,2.683-130.904-13.796-151.233-13.796z M-151.233,37.583c-8.047,0-14.57-6.523-14.57-14.57
	s6.523-14.57,14.57-14.57s14.57,6.523,14.57,14.57S-143.187,37.583-151.233,37.583z"/>
</svg>
