<?xml version="1.0" encoding="utf-8"?>
<!-- Generator: Adobe Illustrator 17.0.0, SVG Export Plug-In . SVG Version: 6.00 Build 0)  -->
<!DOCTYPE svg PUBLIC "-//W3C//DTD SVG 1.1//EN" "http://www.w3.org/Graphics/SVG/1.1/DTD/svg11.dtd">
<svg version="1.1" id="Layer_1" xmlns="http://www.w3.org/2000/svg" xmlns:xlink="http://www.w3.org/1999/xlink" x="0px" y="0px"
	 width="500px" height="100px" viewBox="-226 -26 500 100" enable-background="new -226 -26 500 100" xml:space="preserve">
<g>
	<path fill="#FFE5F8" stroke="#000000" stroke-miterlimit="10" d="M-31.095,36.829c-3.331,2.811-6.713,4.993-10.153,6.547
		c-3.44,1.554-7.045,2.334-10.825,2.334c-3.324,0-6.547-0.499-9.654-1.503c-3.107-0.997-5.86-2.457-8.267-4.379
		c-2.406-1.922-4.343-4.292-5.824-7.103c-1.481-2.811-2.218-5.99-2.218-9.546c0-3.548,0.737-6.728,2.218-9.546
		c1.481-2.811,3.418-5.174,5.824-7.103c2.406-1.922,5.159-3.382,8.267-4.379s6.33-1.503,9.654-1.503
		c1.337,0,2.573,0.079,3.721,0.224c1.149,0.152,2.276,0.296,3.382,0.448c1.113,0.145,2.204,0.296,3.273,0.441
		c1.077,0.152,2.132,0.224,3.165,0.224h2.775c0,1.106,0.014,2.479,0.058,4.104c0.036,1.626,0.108,3.346,0.217,5.159
		c0.116,1.814,0.246,3.606,0.39,5.383c0.152,1.778,0.332,3.404,0.556,4.885h-2.11c-0.593-1.554-1.33-3.31-2.218-5.275
		c-0.889-1.958-1.98-3.772-3.273-5.434c-1.293-1.669-2.797-3.071-4.495-4.22c-1.705-1.142-3.664-1.72-5.882-1.72
		c-3.628,0-6.417,1.293-8.382,3.888c-1.958,2.587-2.934,5.803-2.934,9.654c0,2.955,0.405,5.716,1.214,8.267
		c0.817,2.551,1.98,4.733,3.497,6.547c1.517,1.814,3.346,3.237,5.492,4.271c2.146,1.041,4.516,1.554,7.103,1.554
		c2.37,0,4.531-0.383,6.496-1.163c1.958-0.773,4.083-1.98,6.381-3.606L-31.095,36.829z"/>
	<path fill="#FFE5F8" stroke="#000000" stroke-miterlimit="10" d="M-2.017,0.648c3.331,0,6.547,0.506,9.654,1.503
		s5.86,2.457,8.267,4.379c2.406,1.929,4.35,4.292,5.824,7.103c1.481,2.818,2.226,5.998,2.226,9.546c0,3.555-0.744,6.735-2.226,9.546
		c-1.474,2.811-3.418,5.181-5.824,7.103c-2.406,1.922-5.159,3.382-8.267,4.379C4.53,45.212,1.314,45.71-2.017,45.71
		s-6.547-0.499-9.654-1.503c-3.107-0.997-5.868-2.457-8.267-4.379c-2.406-1.922-4.35-4.292-5.831-7.103
		c-1.481-2.811-2.218-5.99-2.218-9.546c0-3.548,0.737-6.728,2.218-9.546c1.481-2.811,3.425-5.174,5.831-7.103
		c2.399-1.922,5.159-3.382,8.267-4.379S-5.349,0.648-2.017,0.648z M-13.117,21.069c0,3.483,0.332,6.511,0.997,9.105
		c0.672,2.587,1.575,4.711,2.724,6.381c1.142,1.662,2.457,2.905,3.938,3.714c1.481,0.817,2.992,1.221,4.552,1.221
		c3.107,0,5.542-1.366,7.32-4.104c1.778-2.739,2.666-6.771,2.666-12.097c0-3.476-0.332-6.511-1.004-9.098
		c-0.665-2.594-1.568-4.719-2.717-6.381C4.212,8.142,2.904,6.906,1.422,6.089S-1.576,4.868-3.13,4.868
		c-3.107,0-5.55,1.373-7.32,4.104C-12.228,11.711-13.117,15.744-13.117,21.069z"/>
	<path fill="#FFE5F8" stroke="#000000" stroke-miterlimit="10" d="M48.913,7.751c2.594-2.218,5.181-3.953,7.775-5.21
		c2.587-1.257,5.506-1.893,8.765-1.893c4.509,0,8.079,1.279,10.709,3.83c2.63,2.558,3.931,5.976,3.931,10.268v20.862
		c0,1.33,0.231,2.428,0.665,3.273c0.462,0.853,1.012,1.517,1.734,2.002c0.694,0.477,1.474,0.809,2.312,0.997
		c0.867,0.188,1.734,0.275,2.63,0.275v2.218c-1.561-0.072-3.324-0.166-5.29-0.275c-1.966-0.108-4.856-0.166-8.7-0.166
		c-3.628,0-6.482,0.036-8.549,0.108c-2.074,0.072-3.736,0.188-4.993,0.332v-2.218c0.809,0,1.648-0.087,2.493-0.275
		c0.853-0.188,1.611-0.52,2.276-0.997c0.665-0.484,1.221-1.149,1.669-2.002c0.441-0.845,0.665-1.944,0.665-3.273V14.97
		c0-2.146-0.817-3.888-2.442-5.217c-1.626-1.33-3.736-2.002-6.323-2.002c-1.778,0-3.461,0.412-5.051,1.221
		c-1.597,0.817-3.021,1.85-4.278,3.107v23.528c0,1.33,0.224,2.428,0.672,3.273c0.441,0.853,1.012,1.517,1.72,2.002
		c0.701,0.477,1.474,0.809,2.327,0.997c0.853,0.188,1.684,0.275,2.5,0.275v2.218c-0.744-0.072-1.517-0.13-2.334-0.166
		c-0.817-0.036-1.756-0.072-2.825-0.108c-1.077-0.036-2.32-0.072-3.721-0.108c-1.409-0.043-3.071-0.058-4.993-0.058
		c-3.628,0-6.489,0.036-8.599,0.108c-2.11,0.072-3.938,0.188-5.492,0.332v-2.218c0.961,0,1.9-0.087,2.825-0.275
		c0.925-0.188,1.742-0.52,2.442-0.997c0.701-0.484,1.279-1.149,1.72-2.002c0.448-0.845,0.665-1.944,0.665-3.273V10.194
		c0-3.7-2.442-5.55-7.32-5.55V2.426c3.62-0.145,7.248-0.311,10.875-0.499c3.62-0.181,6.807-0.607,9.539-1.279V7.751z"/>
	<path fill="#FFE5F8" stroke="#000000" stroke-miterlimit="10" d="M88.866,6.198V3.647c2.377-0.145,4.502-0.701,6.395-1.662
		c1.879-0.961,3.541-2.182,4.986-3.664s2.717-3.165,3.83-5.051s2.067-3.83,2.89-5.824h2.211v14.98h15.319v3.772h-15.319v23.528
		c0,3.259,0.506,5.514,1.503,6.771c0.997,1.257,2.76,1.886,5.275,1.886c1.33,0,2.746-0.441,4.263-1.33
		c1.517-0.889,2.905-1.958,4.162-3.223l2.341,2.558c-1.113,0.961-2.37,1.994-3.772,3.107c-1.416,1.106-2.905,2.124-4.495,3.049
		c-1.604,0.925-3.194,1.684-4.784,2.276c-1.59,0.593-3.122,0.889-4.596,0.889c-3.859,0-6.865-0.947-9.047-2.833
		c-2.182-1.886-3.281-4.719-3.281-8.491V6.198H88.866z"/>
	<path fill="#FFE5F8" stroke="#000000" stroke-miterlimit="10" d="M158.793,12.412c0-5.029-1.778-7.544-5.333-7.544
		c-1.257,0-2.269,0.224-3.049,0.665c-0.78,0.448-1.373,1.019-1.778,1.72c-0.405,0.708-0.679,1.503-0.824,2.385
		c-0.159,0.889-0.231,1.741-0.231,2.558c0,0.737,0.029,1.351,0.058,1.828c0.043,0.484,0.101,0.91,0.173,1.279
		c-2.746-0.593-5.29-1.149-7.66-1.669c-2.37-0.513-4.769-0.961-7.212-1.33c0.289-2.37,1.026-4.307,2.211-5.824
		s2.645-2.703,4.393-3.555c1.734-0.845,3.642-1.438,5.709-1.77s4.104-0.506,6.099-0.506c2.37,0,4.784,0.21,7.226,0.614
		c2.428,0.405,4.639,1.113,6.59,2.11c1.966,0.997,3.57,2.327,4.827,3.996c1.257,1.662,1.893,3.75,1.893,6.265
		c0,1.337-0.043,2.818-0.116,4.444s-0.13,3.237-0.159,4.827c-0.043,1.59-0.101,3.107-0.173,4.545
		c-0.072,1.445-0.101,2.652-0.101,3.613c0,1.626,0.289,3.107,0.882,4.437c0.593,1.33,1.85,1.994,3.772,1.994
		c1.257,0,2.385-0.332,3.382-0.997c0.997-0.665,1.951-1.402,2.833-2.218l1.778,1.994c-0.882,0.744-1.864,1.669-2.934,2.775
		c-1.084,1.113-2.197,2.146-3.338,3.107c-1.142,0.961-2.341,1.792-3.599,2.5c-1.272,0.701-2.558,1.055-3.888,1.055
		c-1.85,0-3.671-0.665-5.434-2.002c-1.778-1.33-3.295-2.623-4.552-3.88c-2.746,1.698-5.622,3.107-8.657,4.213
		c-3.035,1.113-6.186,1.669-9.437,1.669c-1.546,0-3.093-0.26-4.61-0.78c-1.517-0.52-2.862-1.236-4.047-2.161
		s-2.124-2.016-2.833-3.273c-0.694-1.257-1.055-2.594-1.055-3.996c0-3.555,0.968-6.308,2.89-8.267s4.35-3.44,7.27-4.444
		c2.919-0.997,6.084-1.604,9.495-1.828c3.396-0.224,6.576-0.332,9.538-0.332V12.412z M143.806,31.728
		c0,2.291,0.665,4.083,1.994,5.383c1.344,1.293,3.194,1.937,5.55,1.937c1.344,0,2.645-0.217,3.945-0.665
		c1.301-0.441,2.457-1.149,3.497-2.11c-0.072-1.033-0.13-1.994-0.173-2.883c-0.029-0.889-0.043-1.814-0.043-2.775
		c0-1.033,0.014-2.031,0.043-2.999c0.043-0.961,0.101-1.958,0.173-2.992c-1.041-0.152-2.023-0.26-2.948-0.332
		c-0.925-0.072-1.893-0.116-2.934-0.116c-2.226,0-4.292,0.629-6.214,1.886C144.775,27.327,143.806,29.213,143.806,31.728z"/>
	<path fill="#FFE5F8" stroke="#000000" stroke-miterlimit="10" d="M229.927,36.829c-3.338,2.811-6.72,4.993-10.16,6.547
		c-3.44,1.554-7.053,2.334-10.825,2.334c-3.324,0-6.547-0.499-9.654-1.503c-3.107-0.997-5.868-2.457-8.267-4.379
		c-2.399-1.922-4.35-4.292-5.824-7.103c-1.489-2.811-2.226-5.99-2.226-9.546c0-3.548,0.737-6.728,2.226-9.546
		c1.474-2.811,3.425-5.174,5.824-7.103c2.399-1.922,5.159-3.382,8.267-4.379s6.33-1.503,9.654-1.503c1.33,0,2.573,0.079,3.714,0.224
		c1.156,0.152,2.283,0.296,3.396,0.448c1.098,0.145,2.197,0.296,3.266,0.441c1.069,0.152,2.124,0.224,3.165,0.224h2.775
		c0,1.106,0.014,2.479,0.058,4.104c0.029,1.626,0.116,3.346,0.217,5.159c0.116,1.814,0.246,3.606,0.39,5.383
		c0.145,1.778,0.332,3.404,0.549,4.885h-2.096c-0.593-1.554-1.344-3.31-2.226-5.275c-0.882-1.958-1.98-3.772-3.281-5.434
		c-1.286-1.669-2.789-3.071-4.495-4.22c-1.691-1.142-3.656-1.72-5.882-1.72c-3.613,0-6.417,1.293-8.368,3.888
		c-1.966,2.587-2.948,5.803-2.948,9.654c0,2.955,0.405,5.716,1.228,8.267c0.809,2.551,1.98,4.733,3.497,6.547
		c1.503,1.814,3.338,3.237,5.492,4.271c2.139,1.041,4.509,1.554,7.096,1.554c2.37,0,4.538-0.383,6.489-1.163
		c1.966-0.773,4.09-1.98,6.388-3.606L229.927,36.829z"/>
	<path fill="#FFE5F8" stroke="#000000" stroke-miterlimit="10" d="M230.592,6.198V3.647c2.37-0.145,4.495-0.701,6.388-1.662
		c1.879-0.961,3.541-2.182,4.986-3.664s2.717-3.165,3.83-5.051s2.067-3.83,2.89-5.824h2.211v14.98h15.319v3.772h-15.319v23.528
		c0,3.259,0.506,5.514,1.503,6.771c0.997,1.257,2.76,1.886,5.275,1.886c1.33,0,2.746-0.441,4.263-1.33
		c1.517-0.889,2.905-1.958,4.162-3.223l2.341,2.558c-1.113,0.961-2.37,1.994-3.772,3.107c-1.416,1.106-2.905,2.124-4.495,3.049
		c-1.604,0.925-3.194,1.684-4.784,2.276c-1.59,0.593-3.122,0.889-4.596,0.889c-3.859,0-6.865-0.947-9.047-2.833
		c-2.182-1.886-3.281-4.719-3.281-8.491V6.198H230.592z"/>
</g>
<g>
	<path d="M-101.821-17.315c0,28.07,0,56.106,0,84.169c-37.199,0-74.376,0-111.587,0c0-28.052,0-56.096,0-84.169
		C-176.22-17.315-139.043-17.315-101.821-17.315z M-200.162-9.52c0.153,0.164,0.238,0.26,0.329,0.351
		c12.922,13.083,25.844,26.166,38.769,39.247c1.943,1.967,5.371,1.965,7.322,0.006c1.734-1.74,3.463-3.486,5.194-5.229
		c11.248-11.325,22.496-22.649,33.743-33.974c0.114-0.115,0.222-0.234,0.381-0.401C-143.038-9.52-171.554-9.52-200.162-9.52z
		 M-200.191,59.057c28.434,0,56.76,0,85.156,0c-9.364-9.588-18.679-19.125-28.056-28.726c-0.136,0.175-0.222,0.313-0.334,0.426
		c-1.616,1.632-3.231,3.264-4.854,4.889c-4.926,4.932-13.339,4.923-18.256-0.017c-0.872-0.876-1.728-1.766-2.607-2.635
		c-0.929-0.918-1.876-1.819-2.841-2.752C-181.329,39.788-190.721,49.383-200.191,59.057z M-205.619,53.464
		c9.455-9.658,18.827-19.231,28.224-28.828c-9.404-9.521-18.788-19.022-28.224-28.575
		C-205.619,15.223-205.619,34.284-205.619,53.464z M-137.556,24.849c9.322,9.544,18.614,19.055,27.955,28.618
		c0-18.963,0-37.82,0-56.767C-118.941,6.106-128.226,15.454-137.556,24.849z"/>
	<path fill="#FFE5F8" d="M-200.162-9.52c28.608,0,57.124,0,85.738,0c-0.158,0.167-0.267,0.287-0.381,0.401
		c-11.248,11.325-22.495,22.649-33.743,33.974c-1.731,1.743-3.46,3.489-5.194,5.229c-1.951,1.958-5.379,1.96-7.322-0.006
		c-12.925-13.08-25.846-26.164-38.769-39.247C-199.924-9.26-200.009-9.356-200.162-9.52z"/>
	<path fill="#FFE5F8" d="M-200.191,59.057c9.47-9.674,18.862-19.268,28.208-28.816c0.965,0.934,1.912,1.834,2.841,2.752
		c0.878,0.869,1.735,1.759,2.607,2.635c4.917,4.94,13.33,4.949,18.256,0.017c1.623-1.625,3.238-3.257,4.854-4.889
		c0.112-0.113,0.198-0.25,0.334-0.426c9.378,9.602,18.692,19.138,28.056,28.726C-143.432,59.057-171.757,59.057-200.191,59.057z"/>
	<path fill="#FFE5F8" d="M-205.619,53.464c0-19.18,0-38.242,0-57.403c9.436,9.553,18.82,19.054,28.224,28.575
		C-186.791,34.234-196.163,43.806-205.619,53.464z"/>
	<path fill="#FFE5F8" d="M-137.556,24.849c9.33-9.395,18.615-18.743,27.955-28.149c0,18.947,0,37.804,0,56.767
		C-118.942,43.904-128.234,34.393-137.556,24.849z"/>
</g>
</svg>
